<mxfile host="65bd71144e">
    <diagram id="dGHxLpC16aaW9KeugZD4" name="Page-1">
        <mxGraphModel dx="631" dy="467" grid="1" gridSize="10" guides="1" tooltips="1" connect="1" arrows="1" fold="1" page="1" pageScale="1" pageWidth="850" pageHeight="1100" math="0" shadow="0">
            <root>
                <mxCell id="0"/>
                <mxCell id="1" parent="0"/>
                <mxCell id="2" value="User" style="shape=umlLifeline;perimeter=lifelinePerimeter;whiteSpace=wrap;html=1;container=1;collapsible=0;recursiveResize=0;outlineConnect=0;fontSize=13;" parent="1" vertex="1">
                    <mxGeometry x="100" y="170" width="100" height="340" as="geometry"/>
                </mxCell>
                <mxCell id="3" value="" style="html=1;points=[];perimeter=orthogonalPerimeter;fontSize=13;" parent="2" vertex="1">
                    <mxGeometry x="45" y="60" width="10" height="80" as="geometry"/>
                </mxCell>
                <mxCell id="4" value="" style="html=1;points=[];perimeter=orthogonalPerimeter;fontSize=13;" parent="2" vertex="1">
                    <mxGeometry x="45" y="260" width="10" height="50" as="geometry"/>
                </mxCell>
                <mxCell id="5" value="System" style="shape=umlLifeline;perimeter=lifelinePerimeter;whiteSpace=wrap;html=1;container=1;collapsible=0;recursiveResize=0;outlineConnect=0;fontSize=13;" parent="1" vertex="1">
                    <mxGeometry x="260" y="170" width="140" height="340" as="geometry"/>
                </mxCell>
                <mxCell id="6" value="" style="html=1;points=[];perimeter=orthogonalPerimeter;fontSize=13;" parent="5" vertex="1">
                    <mxGeometry x="65" y="60" width="10" height="80" as="geometry"/>
                </mxCell>
                <mxCell id="7" value="Server" style="shape=umlLifeline;perimeter=lifelinePerimeter;whiteSpace=wrap;html=1;container=1;collapsible=0;recursiveResize=0;outlineConnect=0;fontSize=13;" parent="1" vertex="1">
                    <mxGeometry x="450" y="170" width="100" height="340" as="geometry"/>
                </mxCell>
                <mxCell id="8" value="" style="html=1;points=[];perimeter=orthogonalPerimeter;fontSize=13;" parent="7" vertex="1">
                    <mxGeometry x="45" y="60" width="10" height="80" as="geometry"/>
                </mxCell>
                <mxCell id="9" style="edgeStyle=none;html=1;fontSize=13;" parent="1" source="3" target="5" edge="1">
                    <mxGeometry relative="1" as="geometry">
                        <Array as="points">
                            <mxPoint x="220" y="250"/>
                        </Array>
                    </mxGeometry>
                </mxCell>
                <mxCell id="10" value="login" style="edgeLabel;html=1;align=center;verticalAlign=bottom;resizable=0;points=[];labelPosition=center;verticalLabelPosition=top;fontSize=13;" parent="9" vertex="1" connectable="0">
                    <mxGeometry x="0.2837" y="1" relative="1" as="geometry">
                        <mxPoint x="-27" y="1" as="offset"/>
                    </mxGeometry>
                </mxCell>
                <mxCell id="11" style="edgeStyle=none;html=1;fontSize=13;dashed=1;" parent="1" edge="1">
                    <mxGeometry relative="1" as="geometry">
                        <mxPoint x="325" y="290" as="sourcePoint"/>
                        <mxPoint x="149.5" y="290" as="targetPoint"/>
                        <Array as="points">
                            <mxPoint x="310" y="290"/>
                        </Array>
                    </mxGeometry>
                </mxCell>
                <mxCell id="12" value="authenticate" style="edgeLabel;html=1;align=center;verticalAlign=top;resizable=0;points=[];fontSize=13;labelPosition=center;verticalLabelPosition=bottom;" parent="11" vertex="1" connectable="0">
                    <mxGeometry x="-0.4188" y="3" relative="1" as="geometry">
                        <mxPoint x="-34" y="-33" as="offset"/>
                    </mxGeometry>
                </mxCell>
                <mxCell id="13" style="edgeStyle=none;html=1;fontSize=13;" parent="1" source="6" target="7" edge="1">
                    <mxGeometry relative="1" as="geometry">
                        <Array as="points">
                            <mxPoint x="400" y="250"/>
                        </Array>
                    </mxGeometry>
                </mxCell>
                <mxCell id="14" value="check_user" style="edgeLabel;html=1;align=center;verticalAlign=middle;resizable=0;points=[];fontSize=13;" parent="13" vertex="1" connectable="0">
                    <mxGeometry x="0.4347" y="-1" relative="1" as="geometry">
                        <mxPoint x="-33" y="-11" as="offset"/>
                    </mxGeometry>
                </mxCell>
                <mxCell id="15" style="edgeStyle=none;html=1;fontSize=13;dashed=1;" parent="1" source="8" target="5" edge="1">
                    <mxGeometry relative="1" as="geometry">
                        <Array as="points">
                            <mxPoint x="450" y="290"/>
                        </Array>
                    </mxGeometry>
                </mxCell>
                <mxCell id="16" value="verify_user" style="edgeLabel;html=1;align=center;verticalAlign=middle;resizable=0;points=[];fontSize=13;" parent="15" vertex="1" connectable="0">
                    <mxGeometry x="-0.3233" y="-1" relative="1" as="geometry">
                        <mxPoint x="-19" y="-9" as="offset"/>
                    </mxGeometry>
                </mxCell>
                <mxCell id="19" value="" style="html=1;points=[];perimeter=orthogonalPerimeter;fontSize=13;" parent="1" vertex="1">
                    <mxGeometry x="145" y="330" width="10" height="80" as="geometry"/>
                </mxCell>
                <mxCell id="20" style="edgeStyle=none;html=1;fontSize=13;" parent="1" edge="1">
                    <mxGeometry relative="1" as="geometry">
                        <mxPoint x="335" y="350" as="sourcePoint"/>
                        <mxPoint x="499.5" y="350" as="targetPoint"/>
                        <Array as="points">
                            <mxPoint x="350" y="350"/>
                        </Array>
                    </mxGeometry>
                </mxCell>
                <mxCell id="21" value="request_data" style="edgeLabel;html=1;align=center;verticalAlign=middle;resizable=0;points=[];fontSize=13;" parent="20" vertex="1" connectable="0">
                    <mxGeometry x="-0.2948" y="-2" relative="1" as="geometry">
                        <mxPoint x="17" y="-12" as="offset"/>
                    </mxGeometry>
                </mxCell>
                <mxCell id="22" style="edgeStyle=none;html=1;fontSize=13;dashed=1;" parent="1" edge="1">
                    <mxGeometry relative="1" as="geometry">
                        <mxPoint x="325" y="390" as="sourcePoint"/>
                        <mxPoint x="149.5" y="390" as="targetPoint"/>
                        <Array as="points">
                            <mxPoint x="220" y="390"/>
                        </Array>
                    </mxGeometry>
                </mxCell>
                <mxCell id="23" value="reschedule, alert, camera" style="edgeLabel;html=1;align=center;verticalAlign=middle;resizable=0;points=[];fontSize=13;" parent="22" vertex="1" connectable="0">
                    <mxGeometry x="-0.5328" y="-2" relative="1" as="geometry">
                        <mxPoint x="-44" y="-8" as="offset"/>
                    </mxGeometry>
                </mxCell>
                <mxCell id="24" value="" style="html=1;points=[];perimeter=orthogonalPerimeter;fontSize=13;" parent="1" vertex="1">
                    <mxGeometry x="325" y="330" width="10" height="80" as="geometry"/>
                </mxCell>
                <mxCell id="25" style="edgeStyle=none;html=1;fontSize=13;dashed=1;" parent="1" edge="1">
                    <mxGeometry relative="1" as="geometry">
                        <mxPoint x="495" y="390" as="sourcePoint"/>
                        <mxPoint x="329.5" y="390" as="targetPoint"/>
                        <Array as="points">
                            <mxPoint x="450" y="390"/>
                        </Array>
                    </mxGeometry>
                </mxCell>
                <mxCell id="26" value="predict_data" style="edgeLabel;html=1;align=center;verticalAlign=middle;resizable=0;points=[];fontSize=13;" parent="25" vertex="1" connectable="0">
                    <mxGeometry x="-0.1299" y="-1" relative="1" as="geometry">
                        <mxPoint x="-13" y="-9" as="offset"/>
                    </mxGeometry>
                </mxCell>
                <mxCell id="27" value="" style="html=1;points=[];perimeter=orthogonalPerimeter;fontSize=13;" parent="1" vertex="1">
                    <mxGeometry x="495" y="330" width="10" height="80" as="geometry"/>
                </mxCell>
                <mxCell id="28" style="edgeStyle=none;html=1;fontSize=13;" parent="1" edge="1">
                    <mxGeometry relative="1" as="geometry">
                        <mxPoint x="155" y="437" as="sourcePoint"/>
                        <mxPoint x="329.5" y="437" as="targetPoint"/>
                        <Array as="points">
                            <mxPoint x="190" y="437"/>
                        </Array>
                    </mxGeometry>
                </mxCell>
                <mxCell id="29" value="route_request" style="edgeLabel;html=1;align=center;verticalAlign=middle;resizable=0;points=[];fontSize=13;" parent="28" vertex="1" connectable="0">
                    <mxGeometry x="-0.0946" y="-3" relative="1" as="geometry">
                        <mxPoint y="-13" as="offset"/>
                    </mxGeometry>
                </mxCell>
                <mxCell id="30" style="edgeStyle=none;html=1;fontSize=13;" parent="1" edge="1">
                    <mxGeometry relative="1" as="geometry">
                        <mxPoint x="335" y="437" as="sourcePoint"/>
                        <mxPoint x="499.5" y="437" as="targetPoint"/>
                        <Array as="points">
                            <mxPoint x="430" y="437"/>
                        </Array>
                    </mxGeometry>
                </mxCell>
                <mxCell id="31" value="request_route" style="edgeLabel;html=1;align=center;verticalAlign=middle;resizable=0;points=[];fontSize=13;" parent="30" vertex="1" connectable="0">
                    <mxGeometry x="0.3374" y="-2" relative="1" as="geometry">
                        <mxPoint x="-35" y="-12" as="offset"/>
                    </mxGeometry>
                </mxCell>
                <mxCell id="32" style="edgeStyle=none;html=1;entryX=0.9;entryY=0.533;entryDx=0;entryDy=0;entryPerimeter=0;fontSize=13;dashed=1;" parent="1" edge="1">
                    <mxGeometry relative="1" as="geometry">
                        <mxPoint x="325" y="468.99" as="sourcePoint"/>
                        <mxPoint x="154" y="468.99" as="targetPoint"/>
                    </mxGeometry>
                </mxCell>
                <mxCell id="33" value="suggest_route" style="edgeLabel;html=1;align=center;verticalAlign=middle;resizable=0;points=[];fontSize=13;" parent="32" vertex="1" connectable="0">
                    <mxGeometry x="0.2632" y="-1" relative="1" as="geometry">
                        <mxPoint x="23" y="-9" as="offset"/>
                    </mxGeometry>
                </mxCell>
                <mxCell id="34" value="" style="html=1;points=[];perimeter=orthogonalPerimeter;fontSize=13;" parent="1" vertex="1">
                    <mxGeometry x="325" y="430" width="10" height="50" as="geometry"/>
                </mxCell>
                <mxCell id="35" style="edgeStyle=none;html=1;fontSize=13;dashed=1;" parent="1" edge="1">
                    <mxGeometry relative="1" as="geometry">
                        <mxPoint x="495" y="469" as="sourcePoint"/>
                        <mxPoint x="329.5" y="469" as="targetPoint"/>
                        <Array as="points">
                            <mxPoint x="430" y="469"/>
                        </Array>
                    </mxGeometry>
                </mxCell>
                <mxCell id="36" value="optimal_routes" style="edgeLabel;html=1;align=center;verticalAlign=middle;resizable=0;points=[];fontSize=13;" parent="35" vertex="1" connectable="0">
                    <mxGeometry x="0.1118" y="4" relative="1" as="geometry">
                        <mxPoint y="-14" as="offset"/>
                    </mxGeometry>
                </mxCell>
                <mxCell id="37" value="" style="html=1;points=[];perimeter=orthogonalPerimeter;fontSize=13;" parent="1" vertex="1">
                    <mxGeometry x="495" y="430" width="10" height="50" as="geometry"/>
                </mxCell>
                <mxCell id="38" value="Data Source&lt;br&gt;(API or CCTV)" style="shape=umlLifeline;perimeter=lifelinePerimeter;whiteSpace=wrap;html=1;container=1;collapsible=0;recursiveResize=0;outlineConnect=0;fontSize=13;" vertex="1" parent="1">
                    <mxGeometry x="590" y="170" width="100" height="340" as="geometry"/>
                </mxCell>
                <mxCell id="40" value="" style="html=1;points=[];perimeter=orthogonalPerimeter;fontSize=13;" vertex="1" parent="1">
                    <mxGeometry x="635" y="330" width="10" height="80" as="geometry"/>
                </mxCell>
                <mxCell id="41" value="" style="html=1;points=[];perimeter=orthogonalPerimeter;fontSize=13;" vertex="1" parent="1">
                    <mxGeometry x="635" y="430" width="10" height="50" as="geometry"/>
                </mxCell>
                <mxCell id="42" style="edgeStyle=none;html=1;fontSize=13;" edge="1" parent="1" target="40">
                    <mxGeometry relative="1" as="geometry">
                        <mxPoint x="505" y="350" as="sourcePoint"/>
                        <mxPoint x="630" y="350" as="targetPoint"/>
                        <Array as="points">
                            <mxPoint x="520" y="350"/>
                        </Array>
                    </mxGeometry>
                </mxCell>
                <mxCell id="43" value="get_traffic_data" style="edgeLabel;html=1;align=center;verticalAlign=middle;resizable=0;points=[];fontSize=13;" vertex="1" connectable="0" parent="42">
                    <mxGeometry x="-0.2948" y="-2" relative="1" as="geometry">
                        <mxPoint x="17" y="-12" as="offset"/>
                    </mxGeometry>
                </mxCell>
                <mxCell id="44" style="edgeStyle=none;html=1;fontSize=13;dashed=1;" edge="1" parent="1">
                    <mxGeometry relative="1" as="geometry">
                        <mxPoint x="635" y="390" as="sourcePoint"/>
                        <mxPoint x="500" y="390" as="targetPoint"/>
                        <Array as="points">
                            <mxPoint x="590" y="390"/>
                        </Array>
                    </mxGeometry>
                </mxCell>
                <mxCell id="45" value="detected_data" style="edgeLabel;html=1;align=center;verticalAlign=middle;resizable=0;points=[];fontSize=13;" vertex="1" connectable="0" parent="44">
                    <mxGeometry x="-0.1299" y="-1" relative="1" as="geometry">
                        <mxPoint x="-13" y="-9" as="offset"/>
                    </mxGeometry>
                </mxCell>
                <mxCell id="46" style="edgeStyle=none;html=1;fontSize=13;" edge="1" parent="1">
                    <mxGeometry relative="1" as="geometry">
                        <mxPoint x="505" y="437" as="sourcePoint"/>
                        <mxPoint x="630" y="437" as="targetPoint"/>
                        <Array as="points">
                            <mxPoint x="600" y="437"/>
                        </Array>
                    </mxGeometry>
                </mxCell>
                <mxCell id="47" value="get_routes" style="edgeLabel;html=1;align=center;verticalAlign=middle;resizable=0;points=[];fontSize=13;" vertex="1" connectable="0" parent="46">
                    <mxGeometry x="0.3374" y="-2" relative="1" as="geometry">
                        <mxPoint x="-29" y="-19" as="offset"/>
                    </mxGeometry>
                </mxCell>
                <mxCell id="49" style="edgeStyle=none;html=1;fontSize=13;dashed=1;" edge="1" parent="1">
                    <mxGeometry relative="1" as="geometry">
                        <mxPoint x="635" y="470" as="sourcePoint"/>
                        <mxPoint x="500" y="470" as="targetPoint"/>
                        <Array as="points">
                            <mxPoint x="590" y="470"/>
                        </Array>
                    </mxGeometry>
                </mxCell>
                <mxCell id="50" value="routes_array" style="edgeLabel;html=1;align=center;verticalAlign=middle;resizable=0;points=[];fontSize=13;" vertex="1" connectable="0" parent="49">
                    <mxGeometry x="-0.1299" y="-1" relative="1" as="geometry">
                        <mxPoint x="-13" y="-9" as="offset"/>
                    </mxGeometry>
                </mxCell>
            </root>
        </mxGraphModel>
    </diagram>
</mxfile>